<?xml version="1.0" encoding="UTF-8"?>
<svg id="Calque_1" data-name="Calque 1" xmlns="http://www.w3.org/2000/svg" viewBox="0 0 339.27 305.02">
  <defs>
    <style>
      .cls-1 {
        fill: #fff;
      }
    </style>
  </defs>
  <path class="cls-1" d="M193.65,132.21c-21.71-2.55-35.05-2.91-53.59,10.49-3.19,2.3-5.13,4.16-9.49,3.03l-9.73,8.12,3.86,1.54c.85.34.33,2.48-.11,3.69-5.07,13.87-6.19,41.22-.87,55.96-3.38,1.43-5.11-.93-8.18-2.63,1.31,4.73,5.26,8.63,9.64,11.15l13.62,7.84c1.22.7,2.55,4.16,1.74,5.43l-6.26-.83,1.19,2.09c.3.53-.89,1.75-1.48,1.9l-2.75.66c-1.54.37,2.37,1.81,3.66,5.56.35,1-2.63,2.46-3.7,2.31l-5.66-.8,4.78,5.47c-2.64,2.27-4.95,2.02-7.94,2.16l-29.14,1.42c-1.23.06-3.46-.64-4.22-1.39s-.6-3.73-.16-4.66l15.06-.44c.88-7.01-16.38-2.34-20.62-.97-1.17.38-3.62-.18-4.52-.91-1.05-.85-1.03-4.98.42-5.29l16.23-3.53-10.19-1.86c-1.02-.19-2.48-2.27-2.8-3.14s1.36-3.05,2.43-2.89c8.74,1.29,19.6,1.98,29.11,1.15-3.06-5.09-7.52-7.7-10.28-11.75-4.16-6.12-12.3-17.53-3.4-21.82-1.17-5.08-1.9-10.44-1.97-16.19l-5.32-6.17c-5.13-17.33,13.11-28.14,17.75-37.92,4.72-9.96,9.76-20.06,20.66-24.08,10.46-3.86,21.85-7.23,32.57-5.67.97,2.66,2.09,4.19,4.09,4.23,3.23.06,4.38-.89,5.12-4.91,13.57-.06,39.35,4.94,46.96,17.87,12.91,21.96,7.6,16.83,15.75,34.97,1.68,3.74-.13,8.91-.43,13.14-.81,11.66-.88,23.42-5.58,34.13-1.56,3.55-3.73,8.3-5.97,10.87l-7.71,8.83c8.31,2.62,17.58-1.05,23.71,2.87l5.09,7.35c-1.76.74-3.97,1.49-5.75,1.57l-23.88,1.08c-2.19.1-4.76,1.66-6.16,3.51l11.55-.57,27.94-.32c1.33-.02,3.48,2.24,3.23,3.39-.28,1.31-2.34,2.38-4.07,2.55-13.12,1.28-25.49,3.51-38.53,2.48-5.09-.4-9.71.09-14.52,1.78-1.76-.93-1.73-4.37-1.79-6.41-.34-11.8,2.62-5.96,15.53-20.84l8.58-9.9s6.26-3.94,4.73-8.25c-.22-.62-2.2-.6-2.57,0l-6.94,11.28c-4,6.5-10.25,12.21-17.05,14.53l-4.69-7.2c11.67-13.97,21.11-30.05,24.21-48.08,1.15-6.67,1.97-13.21-.97-19.24l-10.66-21.85c-1.86-3.82-5.37-5.4-9.53-5.89ZM138.17,126.81c8.94-2.94,17.66-5.34,26.79-6.94-8.16-3.22-16.38-.45-23.91,1.42l-1.84-3.07c-.37-.61-15.47,6.07-16.94,12.43l13.71-9.07c.88-.58,4.51,1.13,3.99,2.05l-1.8,3.19ZM209.34,132.79c6.99-1.82-2.01-10.76-19.13-12.52l-4.19-.43c-.86-.09-1.5,2.31-2.2,3.38l-12.14,1.55c8.61.15,18.6,1.38,26.86,2.76,1.25.21,4.16-2.07,4.93-1.14,3.97,4.8,3.76,6.95,5.87,6.4ZM136.37,138.09l14.23-8.91c-7.7,1.56-14,4.35-20.35,9.01,1.73,1.75,4.07,1.19,6.12-.1ZM220.73,140.84c-.76-4.19-1.79-5.28-3.65-7.3l-3.7,2.53,7.35,4.77ZM221.62,150.49c-2.06-2.86-4.76-5.12-8.02-5.6,2.48,6.55,4.63,10.96,7.68,15.96,1.75-3.5,2.14-7.86.34-10.36ZM106.91,162.37l4.78-15.12-7.89,8.94,3.11,6.18ZM226.39,178.37c.5-6.04.39-11.38-.2-18.18-1.64.77-4.45,3.64-4.05,5.21l4.25,12.97ZM99.11,176.56l-.17-10.98-1.78,6.98c.28.89,1.3,2.85,1.94,4ZM222.33,197.72l-4.55-1.07-.82,2.16c.29-.76,3.89,3.55,4.8,2.26.43-.61,1.26-3.19.57-3.35ZM133.19,234.96c-6.69-4.03-13.37-7.48-18.72-13.04l-7.29-7.58c-2.05-2.13-2.33-7.09-4.1-10.34-5.56,4.34,11.04,20.06,14.4,23.52,4.13,4.27,9.19,7.73,15.71,7.44ZM124.37,249.21c-.7-1.04-2.33-2.34-3.02-2.18l-9.79,2.22c4.7.33,7.57.27,12.82-.04Z"/>
  <path class="cls-1" d="M180.48,83.07c-7.28.72-4.91,7.02-7.75,7.29-2.63.25-6.37-.63-8.93-1.28-1.01-.26-1.13-3.16-1.11-4.35.18-9.25-.57-17.8-3.88-26.45,1.4-10.31,3.38-20.01,6.32-30.32.57-2.01,5.21-.69,5.88,1.23l7.98,22.73,5.13,4.77-3.64,26.37Z"/>
  <path class="cls-1" d="M279.82,178.77c4.72,3.22,25.96,1.59,22.63,9.65-5.89,1.4-12.12-.21-17.96-1.38-8.5-1.71-17.66-3.15-25.63-4.33-1.49-.22-3.06-3.98-2.15-4.93s3.25-1.47,5.59-2.26c-3.45-1.79-8.62-4.02-9.35-7.45-.18-.83.53-3.11.85-3.78.41-.84,2.75-.09,3.88-.18,13.39-1.02,26.43-.68,39.68,1.88l2.22,4.21,7.89.33c.71.03,2.18.92,2.61,1.45,4.98,6.16-27.02,6.15-30.27,6.77Z"/>
  <path class="cls-1" d="M59.3,104.55c7.59.33,12.47,6.35,19.56,10.13.64-3.69-2.45-7.27-5.84-9.61-4.46-3.09-9.57-9.95-7.8-13.48,2.14-4.26,8.6,4.24,12.85,7.19l6.11,4.23c-.43-4.7-11.83-21.48-7-22.74,2.89-.75,5.35,2.33,6.39,4.69l12.35,28c1.88,4.27,4.22,7.11,2.44,12.41-.22.65-.43,2.2-.99,2.34l-3.18.74.13,4.95c.04,1.39-4.29,2.12-5.01.77-1.71-3.19-3.97-6.24-6.86-8.49-7.35-5.72-14.3-10.74-22.62-14.91-1.69-.85-2.74-6.31-.52-6.21Z"/>
  <path class="cls-1" d="M31.22,193.3c-1.2,1.63-6.51,2.35-6.76.19-.61-5.23,4.59-7.2,9.18-9.01l-9.22-2.02c-1.7-.37-4.75-4.58-2.94-5.49,9.86-5.02,23.13-.48,43.09-4.35,5.25-1.02,12.14-1.18,15.53,3.87.61.91-2.83,1.86-3.86,1.92l-2.93.16c.12,0-2.86,6.24,1.77,10.13-1.35,1.2-4.9,1.91-7.68,1.66-9.32-.83-18.36.44-27.28,2.02-2.35.42-5.97-3.08-8.9.91Z"/>
  <path class="cls-1" d="M254.52,133.11c-4.74,2.06-11.1,9.97-14.65,4.19-.91-1.48.55-3.85,2.25-5.16l1.44-1.11c1.46-1.13-1.73,0-5.72-2.19-1.05-.58-.99-4.15.13-4.56l5.11-1.85,9.01-8.53c3.26-3.08,15.7-12.37,17.02-6.4.98,4.42-3.7,3.81-7.29,8.38,3.71-.67,7.89-2.25,11.71-1.69,2.69.39,4.46,7.47,2.66,9.52l-21.68,9.42Z"/>
  <path class="cls-1" d="M61.61,225.25c-1.15.64-3.13,1.01-3.96.83-1-.22-2.07-3.07-1.3-3.72l4.75-4.03-5.34-.73c-1.01-.14-1.57-2.09-1.93-3.81,3.47-2.15,7.72-4.01,10.95-6.27,6.26-4.38,14.25-12.52,18.46-6.77.83,1.13-.65,3.33-2.68,5.59l5.71.06c.83,0,2.07,2.61,1.63,3.29-.54.84-1.84,1.87-3.09,2.57l-23.21,12.99Z"/>
  <path class="cls-1" d="M254.08,215.15c-6.74-3.2-13.36-3.04-12.64-13.22l7.25-.89c-2.1-1.41-3.89-2.63-5.17-3.65-1.13-.9-.23-5.94,1.18-5.57,6.21,1.63,10.85,5.06,16.26,7.93,3.81,2.02,8.28,4.2,10.68,8.06.69,1.1-.57,4.24-1.68,4.82-1.26.67-4.4.75-5.79,1.29-3.47,1.34-5.81,3.26-10.09,1.23Z"/>
  <path class="cls-1" d="M243.18,86.22c-2.05,1.12-24.01,13.27-22.64,13.1-1.02.13-2.63-1.67-3.05-2.82-.35-.97.65-2.65,1.57-3.63l9.38-10.02-8.74,2.9c-1.12.37-3.75-.89-4.32-1.87-.63-1.09.76-3.59,2.21-4.25l17.89-8.2c.89-.41,3.39-.74,3.82-.04.53.88.65,2.76.53,4.08l-.31,3.53c-.17,1.95,3.87,1.19,5.54,4.14.39.69-1.05,2.63-1.89,3.09Z"/>
  <path class="cls-1" d="M125.83,81.37c1.69,3.14,11.87,20.58,3.08,19.04l-7.56-1.33c-6.18-1.09-7.35-8.18-7.55-13.14-.34-8.37-6.95-15.04-4.13-18.47.63-.77,3.77-.25,4.25.62l3.42,6.18c3.92,1.33,6.59,3.58,8.48,7.09ZM124.3,92.14l-2.49-3.71c-.2.45-.38,2.37-.04,3.02s2.08.83,2.53.69Z"/>
  <path class="cls-1" d="M85.57,150.49c-1.8,3.4-7.12,1.84-9.87,1.26-6.56-1.37-12.25-2.16-19.1-2.4-1.43-.05-3.61-1.02-4.25-2.03-.71-1.12-.3-4.49.97-5.04,5.3-2.28,10.45.15,15.51,1.3,3.6.82,19.6,1.49,16.73,6.9Z"/>
  <path class="cls-1" d="M265.04,149.34c-3.61,3.84-24.16,10.77-25.06,2.92l16.88-6.57c1.39-.54,4.09-1.13,5.32-.74s2.33,2.73,2.87,4.39Z"/>
  <path class="cls-1" d="M209.34,132.79c-2.11.55-1.9-1.6-5.87-6.4-.77-.93-3.69,1.34-4.93,1.14-8.26-1.38-18.25-2.61-26.86-2.76l12.14-1.55c.7-1.07,1.34-3.47,2.2-3.38l4.19.43c17.12,1.76,26.13,10.7,19.13,12.52Z"/>
  <path class="cls-1" d="M138.17,126.81l1.8-3.19c.52-.92-3.11-2.63-3.99-2.05l-13.71,9.07c1.46-6.35,16.57-13.04,16.94-12.43l1.84,3.07c7.53-1.87,15.75-4.64,23.91-1.42-9.13,1.6-17.85,4-26.79,6.94Z"/>
  <path class="cls-1" d="M221.62,150.49c1.8,2.51,1.4,6.86-.34,10.36-3.05-5-5.2-9.41-7.68-15.96,3.26.48,5.96,2.74,8.02,5.6Z"/>
  <path class="cls-1" d="M133.19,234.96c-6.52.29-11.57-3.18-15.71-7.44-3.36-3.46-19.96-19.19-14.4-23.52,1.77,3.26,2.05,8.21,4.1,10.34l7.29,7.58c5.35,5.56,12.03,9.01,18.72,13.04Z"/>
  <path class="cls-1" d="M136.37,138.09c-2.06,1.29-4.4,1.85-6.12.1,6.35-4.65,12.65-7.45,20.35-9.01l-14.23,8.91Z"/>
  <path class="cls-1" d="M226.39,178.37l-4.25-12.97c-.4-1.57,2.41-4.45,4.05-5.21.59,6.81.71,12.14.2,18.18Z"/>
  <polygon class="cls-1" points="106.91 162.37 103.8 156.19 111.69 147.25 106.91 162.37"/>
  <path class="cls-1" d="M220.73,140.84l-7.35-4.77,3.7-2.53c1.86,2.02,2.88,3.11,3.65,7.3Z"/>
  <path class="cls-1" d="M124.37,249.21c-5.25.31-8.12.38-12.82.04l9.79-2.22c.7-.16,2.33,1.14,3.02,2.18Z"/>
  <path class="cls-1" d="M222.33,197.72c.69.16-.14,2.74-.57,3.35-.9,1.29-4.51-3.02-4.8-2.26l.82-2.16,4.55,1.07Z"/>
  <path class="cls-1" d="M99.11,176.56c-.64-1.15-1.66-3.11-1.94-4l1.78-6.98.17,10.98Z"/>
  <path class="cls-1" d="M124.3,92.14c-.45.14-2.19-.03-2.53-.69s-.16-2.57.04-3.02l2.49,3.71Z"/>
</svg>