<?xml version="1.0" encoding="UTF-8"?>
<svg id="Calque_1" data-name="Calque 1" xmlns="http://www.w3.org/2000/svg" viewBox="0 0 160.54 144.35">
  <defs>
    <style>
      .cls-1 {
        fill: #fff;
      }
    </style>
  </defs>
  <path class="cls-1" d="M90.13,111.97c-5.48,1.75-9.97,2.42-15.49,1.31-7.04-1.41-13.84-4.3-19.76-8.33-3.87-2.63-6.24-6.23-8.79-9.92s-4.26-7.3-5.63-11.37c-2.32-6.89-2.53-13.18-.82-20.15s3.69-13.2,8.3-18.57c1.49-1.74,2.94-3.89,4.58-5.49,4.11-4.02,9.54-5.67,15.05-6.84,4.91-2.3,10.17-3.9,15.5-3.32,4.7.52,9.47.82,13.95,2.58,2.69,1.06,5.78,2.47,8.05,4.21,5.78,4.42,8.59,11.29,10.68,18.04,1.32,4.26,1.74,18.65.89,23.47-1.5,8.49-4.49,16.91-9.24,24.07-3.88,5.85-10.81,8.24-17.28,10.31ZM98.1,37.15c.35.13.86.24,1.09.18s.48-.6.3-.76c-2.97-2.6-16.58-5.03-20.1-3.48,7.57.7,11.88,1.42,18.71,4.05ZM56.09,64.15c-1.78-.55-3.34-1.01-3.92-1.77-.35-3.12,1.83-5.53,5.03-6.27,1.7-.39,5.7-1.82,6.43,1.04.93,3.7.24,8.24.26,12.28.02,5.18-.09,10.42-.75,15.65-.05.43,1.2.19,1.33-.15,1.93-4.88,4.15-9.53,6.36-14.24l1.94-4.13c.98-2.08,1.37-4.59,2.3-6.79l5.31-12.48c1.4-3.28,1.86-6.29,3.48-9.93-6.71-.37-13.62-3.44-18.31,2.07l4.78-.4c.4-.03,1.58,1.28,1.27,1.53-1.98,1.57-3.7-.18-4.98,1.74l-3.82,5.71c-1.46,2.19-3.93,1.6-6.04.07-4.79,4.46-8.95,11-10.04,17.78-.74,4.61.93,9.09,1.6,13.52.33,2.2.8,4.36,1.64,6.45,1.28.26,3.18.14,4.46-.25l.75-10.1.56-5.34c.19-1.84.54-4.62.35-5.98ZM84.88,61.08c2.06-.71,3.76-1.43,5.54-2.35.7-6.91,2.32-12.87,5.67-18.76l-4.28-1.15c.56.72,1.19,1.31,1.09,1.71-.07.3-.3.92-.53,1.37l-2.64,5.27c-2.25,4.49-3.25,8.93-4.85,13.9ZM109.14,47.06c-1-2.74-1.93-4.6-4.19-5.61,1.02,2.33,2.59,4.22,4.19,5.61ZM98.35,56.31l9.43-.21c-.74-4.08-1.64-7.62-4.88-10.78-1.23,1.04-2.54,2.89-2.96,4.61l-1.59,6.37ZM112.4,56.22c-.22-2.17-.61-3.4-1.32-4.8-.23,1.91.36,3.45,1.32,4.8ZM90.37,102.61c6.94-1.37,8.79-2.23,12.29-8.76l-5.7.84-5.17.67c-4.42.57-7.35-.39-11.5-3.52,5.51-3.39,3.03,0,9.86-4.61.14-8.83-1.12-12.78-.44-21.83-2.41.07-4.51.35-6.8.84-1.72,4.29-3.4,8.13-4.87,12.42l-4.55,13.31c-.75,2.2-1.91,4.18-3.14,6.44-.41.76-2.72.27-3.09-.62-.26-.63-.07-1.44.04-2.63-1.39,1.19-3.63,2.58-5.06,1.19-.42-1.12-.4-3.36-.38-5.25l-9.53,1.08c4.52,3.4,10.49,7.08,16.3,8.59,7.08,1.83,14.27,3.33,21.72,1.86ZM109.8,66.27c-2.77-.12-5.17-.18-7.75-.16l-3.82.03-.95,20.63,3.52,1.54c1.02.45,3.34,1.85,4.37.61,3.76-4.58,6.55-16.76,4.64-22.65ZM68.04,85.03c.72-.75.94-1.63.57-2.1-.72.75-.94,1.63-.57,2.1ZM100.06,103.49l-7.29,2.01c-3.27.9-6.55,1.08-10.12,1.01-5.86-.87-11.5-1.85-17.19-3.71s-10.48-5.54-15.79-8.48c4.35,10.1,22.28,16.91,32.02,16.17,4.13-.31,15.55-3.71,18.36-7Z"/>
</svg>