<?xml version="1.0" encoding="UTF-8"?>
<svg id="Calque_1" data-name="Calque 1" xmlns="http://www.w3.org/2000/svg" viewBox="0 0 292.36 297.72">
  <defs>
    <style>
      .cls-1 {
        fill: #fff;
      }
    </style>
  </defs>
  <path class="cls-1" d="M47.51,131.27l-6.26-6.21c4-1.1,7.71-.92,11.07-2.1,8.23-2.88,22.68-9.66,30.77-2.28.6.74-1.94,2.25-2.95,2.36l1.43.93c.47.31.88,1.94.38,2.18-.7.33-2.38.45-2.47,1.03l-.43,2.82c-.69,4.57-.1,8.45.58,12.79,1.39,8.85-1.13,20.69,2.06,31.72,1.16-6.26,1.14-11.58,1.09-17.8-.09-11.9,1.21-24.46,3.83-35.81.18-.77,1.44-1.93,2.02-2.14,3.48-1.29.33,8.83,1.15,12.77,1.26,6.08,2.54,11.66,2.14,17.91l-1.81,28.4c-.45,7-.68,13.15-.58,21.02,6.03-.82,24.44,5.79,23.76,12.53-.04.37,1.44.43,1.65-.02,1.66-3.57,7.82-18.35,12.02-17.51.93.18,1.57,2.13,1.52,3.15l-.2,4.77,4.06-2.5c.29-.18,1.46.76,1.46,1.12v2.86s2.79-3.61,2.79-3.61c-1.34-4.56,1.47-15.05,6.02-17.35,2.67-6.64,5.98-13.44,8.18-20.3,1.59-4.95-1.12-10.62,2.13-15.54-1.75.72-1.62,1.79-2.12,3.45l-5.57,18.54c-.25.83-1.98,1.32-2.65,1.12-.79-.23-1.29-1.93-1.04-2.97,1.17-5,2.2-9.4,2.84-14.31l1.67-12.76-6.06,10.48-3.77,8.85c-.76-.22-2.43-1.03-2.22-1.69l.98-3.1c3.94-12.43,8.48-25.17,14.27-36.83l3.59-2.37,1.8-6.43-4.46-1.36c1.7-6.02,3.92-11.06,6.37-16.63,3.96-9,7.37-17.96,11.85-26.64,1.51-2.91,3.48-5.53,7.11-5.65.92,3.88-2.78,6.63-1.66,8.94.35.73,2.83.88,3.15.11,1.88-4.48,5.06-9.36,10.03-11.56.92,3.51.36,7.32-1.26,10.48l-5.82,11.39c-4.01,7.84-7.84,21.67-9.39,30.54-.4,2.31-1.31,3.58-2.55,5.48-2.83,4.34-3.32,10.06-5.22,14.98-3.77,9.75-7,19.35-8.82,29.66l1.68,2.99c-2.99,6.08-5.47,11.95-7.71,18.31l-5.28,15-2.43,5.02c-.84,1.74-1.2,3.34-1.72,5.34-2.73,10.56-6.59,20.48-11.02,30.44-1.22,2.74-3.89,5.28-5.7,7.34.43.88,1.2,2.79.93,3.66l-1.91,6.23c-.41,1.34-1.43,2.36-2.73,2.34-1.44-.02-1.77-1.52-2.13-3.06l-1.53-6.4-4.63,1.77c-1.01,1.08-2.14,2.33-2.94,2.88-.89.6-3.47-.72-3.76-1.9,1.24-2.34,3.48-4.95,4.37-7.15,3.6-8.87,3.23-.9,10.41-12.95,1.04-1.74,1.46-4.73,1.47-6.93-5.59,4.45-6.96,16.73-11.26,12.43-2.38-2.38,4.09-4.77,5.01-17.03.27-3.55-5.98.57-13.72.48l-20.03-.24-7.75.7c-.66.06-1.89,1.18-2.47,1.38s-1.99-.87-2.61-.84c-3.02.16-7.17,1.92-10.05,1.77l-8.24-.43c-.7-.04-1.81-.39-2.37-.6-.69-.27-.96-3.23-.24-3.41,2.68-.66,8.35-1.44,11.31-1.78.55-.06.54-1.54.08-1.64-2.72-.58-7.26,4.25-10.34-1.19.65-1.99,3.6-4.52,5.7-5.84l15.65-9.87c1.38-.87,1.16-4.97,1.06-6.59-.58-9.15-.3-18.01.38-27.12l.66-8.84c-5.5-3.88.62-10.84-8.99-14.46-.68-.26-2.45-1.88-2.02-2.45l2.01-2.59c-4.64-1.96-8.15,3.72-13.62-1.71ZM155.01,107.14c3.03-3.18,5.01-6.49,5.54-10.97-.97-.02-6.8,10.27-5.54,10.97ZM156.76,117.65l1.81-7.17c-2.58,1.36-2.76,4.33-1.81,7.17ZM150.63,139.24l7.29-18.35c-.71-.72-1.29-1.6-1.57-1.31-4.21,4.56-6.22,12.49-5.72,19.66ZM61.67,128.28l6.59-.04c1.19-4.41-14.5-.15-15,.6,2.88.58,5.52-.54,8.41-.56ZM71.91,128.64c.84-.73,1.62-2.11,1.12-2.21l-2.29-.44,1.17,2.65ZM71.1,140.36l1.57-7.17-4.75.96,3.18,6.21ZM75.87,196.3c.25-1.8.24-3.7-.04-5.6-1.52,1.9-2.57,4.25.04,5.6ZM84.18,204.08c-.09-1.67-.29-5.32-.73-7.01l-1.6-6.17c-1.13,2.84-2.06,5.47-2.52,7.63,1.41.65,3.06.92,3.05,1.71l-.02,3.1c-.24.7-.69,1.66-.34,1.55s2.18-.45,2.16-.82ZM71.41,211.37c2.17-2.55,1.32-5.47.74-7.94l-.74,7.94ZM97.06,203.57l-7.94.02c-.44,1.3.29,4.16,1.07,3.62l6.86-3.63ZM107.01,208.81l-6.15-3.55c-1.3,1.67-1.79,2.22-2.95,3.42l9.1.14ZM63.15,212.12c.93.2,3.34.59,3.36-.23l.09-3.73-3.44,3.96ZM84.94,211.46c.26-1.55-1.17-2.93-1.89-2.34l-2.42,2c.22,1.14,4.11,1.54,4.31.34ZM121.21,237.3c4.75-5.71,7.21-11.79,9.24-18.31l2.76-8.86c-4.24,4.74-13.31,21.32-12,27.17Z"/>
  <path class="cls-1" d="M98.99,84.4c-2.72,6.76-7.96-.36-12.49,3.39-2.16,1.79-4.02,1.55-6.63,1.31-2.39-.21-5.12.03-7.06-1.15l-8.53-5.17c-1.08-.65-2.48-3.49-2.08-5.15.32-1.35,1.84-2.63,3.41-4.01-3.05-.53-5.55-.94-6.6-3.5l4.25-4.82c5.35,1.91,9.18-8.94,18.75-2.21,1.59,1.12,3.38,1.74,5.53,1.23,1.19-.29,4.36.61,3.94,1.86-.8,2.35-1.18.55-5.39,5.55-.39.46-1.83-.24-2.62-.47l-1.48-.43c-.38-.11-.91.61-1.11,1-.19.35,1.3,1.11,1.74,1.08,13.58-.89,8.26,1.36,14.56,5.06l1.76,1.03c.42.25-.26,1.31-.61,1.84l-1.07,1.59c-.27.41,1.26,1.43,1.76,1.98ZM77.81,65.5c-1.75-.72-3.84.02-5.25,1.82,1.85.46,3.56-.11,5.25-1.82ZM67.11,78.8c1.56,1.52,3.43,2.64,5.19,3.25l2.98-6.77c-1.54,1.32-2.64,2.21-3.8,2.6-1.9-.06-2.78.08-4.37.92ZM81.23,85.19l4.92-4.38-5.78-3.16-2.53,4.47c-.36.63.07,2.78.75,3.04.55.21,2.2.42,2.64.03Z"/>
  <path class="cls-1" d="M133.82,196.03c-.28.87-1.41,2.31-2.14,2.06-1.01-.34-2.13-2.21-1.83-3.07l2.24-6.34c-1.94-.03-2.05,1.48-2.88,2.76-.86,1.33-4.97,1.13-6.27.7,5.55-8.97,6.66-15.9,12.08-25.62,1.45,4.44-.45,7.59-.51,11.89l3.52-6.76c.41-.78,2.09-1.65,2.79-1.31.85.41,1.37,2.58.87,3.53-2.49,4.71-3.57,8.83-5.14,13.7l-2.71,8.45Z"/>
  <path class="cls-1" d="M121.21,237.3c-1.31-5.85,7.76-22.43,12-27.17l-2.76,8.86c-2.03,6.52-4.49,12.6-9.24,18.31Z"/>
  <path class="cls-1" d="M150.63,139.24c-.5-7.17,1.51-15.1,5.72-19.66.27-.3.85.59,1.57,1.31l-7.29,18.35Z"/>
  <path class="cls-1" d="M84.18,204.08c.02.37-1.81.71-2.16.82s.1-.85.34-1.55l.02-3.1c0-.78-1.64-1.06-3.05-1.71.46-2.16,1.39-4.79,2.52-7.63l1.6,6.17c.44,1.69.63,5.34.73,7.01Z"/>
  <path class="cls-1" d="M61.67,128.28c-2.9.02-5.53,1.14-8.41.56.5-.75,16.19-5.01,15-.6l-6.59.04Z"/>
  <path class="cls-1" d="M155.01,107.14c-1.26-.7,4.57-10.99,5.54-10.97-.53,4.48-2.51,7.79-5.54,10.97Z"/>
  <polygon class="cls-1" points="71.1 140.36 67.92 134.15 72.67 133.19 71.1 140.36"/>
  <path class="cls-1" d="M97.06,203.57l-6.86,3.63c-.78.54-1.51-2.32-1.07-3.62l7.94-.02Z"/>
  <path class="cls-1" d="M107.01,208.81l-9.1-.14c1.16-1.2,1.65-1.75,2.95-3.42l6.15,3.55Z"/>
  <path class="cls-1" d="M84.94,211.46c-.21,1.21-4.09.8-4.31-.34l2.42-2c.71-.59,2.15.8,1.89,2.34Z"/>
  <path class="cls-1" d="M156.76,117.65c-.96-2.84-.77-5.8,1.81-7.17l-1.81,7.17Z"/>
  <path class="cls-1" d="M63.15,212.12l3.44-3.96-.09,3.73c-.02.82-2.42.43-3.36.23Z"/>
  <path class="cls-1" d="M75.87,196.3c-2.62-1.36-1.56-3.7-.04-5.6.29,1.9.29,3.8.04,5.6Z"/>
  <path class="cls-1" d="M71.41,211.37l.74-7.94c.58,2.47,1.43,5.39-.74,7.94Z"/>
  <path class="cls-1" d="M71.91,128.64l-1.17-2.65,2.29.44c.5.1-.28,1.47-1.12,2.21Z"/>
  <path class="cls-1" d="M200.85,169.48l-.86-8.58c-2.6-1.26-3.97-2.99-3.65-5.94.92-8.55-2.18-2.48-.85-20.45.08-1.13,3.72-1.69,3.87-.88l.79,13.46c.39,6.61,2.96,12.89.71,22.38Z"/>
  <path class="cls-1" d="M191.71,122.8c-1.82-.04-5.15-.52-7.77-1.23.89-.83,6.7-1,8.21-.64.28.07-.15,1.88-.44,1.87Z"/>
  <g>
    <path class="cls-1" d="M220.01,208.37c.22,7.84-6.13-2.47-11.98,1.9l12.06,2.6c.62.13,1.65,1.61,1.69,2.17.24,3.28-9.78-.11-15.61-.05-7.8.08-14.84,1.81-20.39-2.36l-6.02,2.01-2.35-4.82c.43-1.78,1.25-4.38,2.04-6.37,1.26-.79,4.46-1.33,5.91-1.26.33.02.79,1.99,1.05,1.78,4.44-3.57,4.84-28.35,5.12-35.01l.77-18.43c.25-5.84.25-11.03.14-17.33-7.56-.21-15.28.04-22.24.34-.91.04-2.56-.79-3.19-1.18s-.31-2.94.41-3.06l7.4-1.24c-1.22-1.56-2.92-4.07-2.54-5.5.83-3.07,3.87-1.35,6.28-1.52l-3.57-1.83c-.85-.44-.94-3.62.04-3.65l19.5.25c.51-13.48,4.01-7.25,4.62-13.42l1.57-16.13c-2.87,6.01-3.99,12.31-4.83,19.02-.77.83-2.93-.8-3.06-2.1-1.09-10.38,5.2-23.55,11.21-31.97l5.04-7.06c1.53-2.15,2.53-4.21,5.84-4.6l16.55-1.95c3.23-.38,8.2-1.6,9.69,2.11-.55,1.14-2.69,2.84-2.33,3.82,1.67,4.46,5.3,3.13,5.19,5.45-.04.76-.62,2.58-.96,3.16l-6.34-.79c2.08,2.55,3.02,3.43,3.58,4.45.59,1.09-1.9,3.34-3.02,3.39l-2.97.13c-.73.03-.6-2.14-.44-3.23l-14.75-1.24c-2.35-.2-4.73-2.09-5.06-3.82-7.01,2.89-8.4,8.74-7.74,15,.5,4.72-3.41,9.56-1.42,14.46l2.04-10.26,2.09-10.04c.1-.46,2.22-.8,2.37-.35.2.59.65,2.2.57,2.93-.77,7.69-1.32,15.79-1.67,23.53l-.4,9.03,16.89-2.36c4-.56,7.68,1.15,10.92,2.85,1.88-.6,4.69-2.44,6.61-.25l-2.03,4.43.57,2.9c.15.77-1.99,1.81-2.73,2.14l-2.15.95c2.66.51,5.22.63,6.48,2.73.19,1.22-2.52,2.69-3.84,2.72l-19.74.45c-3.86.09-7.14.67-11.65-.26l-1.36,31.48-.56,22.53.27,13.75,7.84,4.8c.79.49,3.91-.03,4.17.76s.35,2.02.39,3.44ZM220.69,62.76l-5.79,1.04c-.29.05-.55,1.27-.71,1.52s1.15.31,1.41.18l5.08-2.73ZM193.69,122.8c.29,0,.73-1.81.44-1.87-1.51-.36-7.32-.19-8.21.64,2.62.71,5.94,1.19,7.77,1.23ZM228.76,124.19l-11.71.23,5.88.66c1.95.22,4.08,1.97,5.82-.89ZM209.79,125.03l.29,2.14c.06.41,1.04-.68,1.21-1.05s.66-1.46.41-1.13c-.17.22-1.95-.23-1.92.05ZM202.84,169.48c2.25-9.49-.32-15.76-.71-22.38l-.79-13.46c-.15-.82-3.79-.26-3.87.88-1.33,17.96,1.78,11.9.85,20.45-.32,2.95,1.05,4.68,3.65,5.94l.86,8.58ZM202.64,209.85l-.52-7.86c-.99-.94-2.11-1.82-1.85-2.39.21-.45,1.43-1.57,1.54-2.07.72-3.04,1.42-8.81-1.75-12.24-.84,6.42-1.23,12.91-1.26,19.39.49.71,2.03,1.88,1.71,2.5l-1.66,3.14c-.05.79,3.86.57,3.79-.48ZM193.67,202.2l.52-3.26c-1.09.97-2.04,2.51-.52,3.26Z"/>
    <path class="cls-1" d="M209.42,209.85c.07,1.06-3.84,1.27-3.79.48l1.66-3.14c.33-.62-1.21-1.8-1.71-2.5.03-6.48.42-12.97,1.26-19.39,3.18,3.43,2.48,9.19,1.75,12.24-.12.5-1.33,1.61-1.54,2.07-.26.57.86,1.44,1.85,2.39l.52,7.86Z"/>
    <path class="cls-1" d="M228.76,124.19c-1.74,2.86-3.87,1.11-5.82.89l-5.88-.66,11.71-.23Z"/>
    <path class="cls-1" d="M209.79,125.03c-.04-.27,1.75.17,1.92-.05.25-.33-.24.76-.41,1.13s-1.16,1.46-1.21,1.05l-.29-2.14Z"/>
  </g>
  <path class="cls-1" d="M198.46,202.2c-1.52-.75-.58-2.29.52-3.26l-.52,3.26Z"/>
  <path class="cls-1" d="M81.23,85.19c-.44.39-2.09.19-2.64-.03-.69-.27-1.11-2.42-.75-3.04l2.53-4.47,5.78,3.16-4.92,4.38Z"/>
  <path class="cls-1" d="M67.11,78.8c1.59-.83,2.47-.98,4.37-.92,1.15-.39,2.26-1.29,3.8-2.6l-2.98,6.77c-1.75-.61-3.62-1.73-5.19-3.25Z"/>
  <path class="cls-1" d="M77.81,61c-1.68,1.71-3.4,2.29-5.25,1.82,1.4-1.8,3.49-2.54,5.25-1.82Z"/>
</svg>