<?xml version="1.0" encoding="UTF-8"?>
<svg id="Calque_1" data-name="Calque 1" xmlns="http://www.w3.org/2000/svg" viewBox="0 0 339.27 305.02">
  <defs>
    <style>
      .cls-1 {
        fill: #fff;
      }
    </style>
  </defs>
  <path class="cls-1" d="M114.49,152.83c-11.01-8.09-21.41-15.12-34.94-19.17,7.75,9.68,31.65,24.01,43.89,31.25,1.07.63,2.47,2.89,2.96,3.98.49,1.1-1.96,4.38-3.21,4.17-14.95-8.39-30.84-17.96-43.99-29.74-8.89-7.97-19.56-16.47-29.21-22.85-1.05-.7-2.51-4.64-1.6-5.39,1.09-.9,3.65-1.38,5.92-1.75l-1.92-3.24c-.47-.8-.19-3.61.74-3.59,1.27.03,3.92.92,4.91,1.69l7.75,5.95c.58-1.97,1.42-4.95,2.72-5.58l15.38-7.38c-3.35-.75-5.08-1.51-6.37-4.82-.73-1.87,1.26-4.31,3.97-5.14,6.75-2.07,12.36-4.77,18.55-7.87l35.87-17.96c3.47-1.74,6.96-2.78,11.05-3.97l2.84,7.17-6.88,3.51c1.46,2.8,2.51,6.78.82,7.71l-19.06,10.51-51.44,25.93c-1.03.52-1.67,2-1.44,2.07.39.13,2.09.64,2.9.29,22.44-9.83,47.49-23.69,68.55-36.99,2.09-1.32,5.23-1.49,6.51-.93,1.49.65,2.67,5.36,1.02,6.48-19.56,13.23-42.73,25.09-63.61,35.25-.96.47-2.11,1.5-2.49,1.86s1.58,1.76,2.42,2.08c16.02,6.28,32.44,16.97,46.51,27.6,6.14,4.64,12.61,8.06,10.18,18.38-4.83-2.25-9.3-4.84-13.44-7.87l-15.86-11.65Z"/>
  <path class="cls-1" d="M257.44,193.8l-31.63,20.45-19.01,12.57c-1.12-1.04-3.17-4.16-3.02-5.73,0,.05,7.48-13.11,8.85-15-3.82,2.63-9.04,7.39-12.91,8.25-1.71.38-4.67-3.37-4.98-4.9-.35-1.74,2.37-4.68,4.38-5.24,5-1.38,5.54-5.96,7.81-8.18,3.9-3.81,6.76-6.85,9.97-11.08,11.13-14.69,38.89-30.99,55.7-39.91,3.86-2.05,22.74-12.61,24.12-5.65.25,1.25-.92,4.19-2.18,4.81l-11.69,5.66,2.33,4.7c.5,1.02-2.54,2.9-3.6,3.43l-11.99,5.99c-2.35,1.17-4.06,2.93-4.66,6l10.9-5.5c7.67,5.73,8.54-4.1,16.36-3.68,1.8.1,4.79,5.83,3.29,6.86l-38.03,26.13ZM221.05,200.33l20.88-12.17,18.31-14.07c-5.01.63-8.09,3.43-11.79,5.93-9.67,6.53-19.44,12.14-27.4,20.31Z"/>
  <path class="cls-1" d="M249.82,119.72c-6.93-3.08-12.88-5.14-19.75-7.86l-13.95-5.53c-4.65-1.85-33.1-13.06-24.12-20.81l18.22,9.31,39.79,16.12c1.96.8,4.79,2.52,6.74,2.6,1.81.08,3.93-2.41,5.9-4.95l-40.56-14.69c-5.81-2.1-20.96-8.5-16.21-16.76,8.41,3.99,15.25,7.68,24.02,10.76,16.78,5.89,35.26,12.74,51.15,19.82,1.31.58,3.41,4.79,2.28,5.24l-4.99,1.99c-8.31,17.41-46.24,36.96-61.37,47.43l-8.55,5.92-3.39-5.53c-2.71,1.44-5.7,2.24-6.8.96-1.5-1.75-1.59-6.47.27-7.7l34.89-23.09c5.97-3.95,10.7-8.17,16.44-13.21Z"/>
  <path class="cls-1" d="M128.53,229.38l-37.84-18.19c-12.4-5.96-23.57-12.17-35.66-18.86l-8.42-1.73c-.96-.2-2.44-2.16-3.07-2.93-6.08-7.33,16.2-5.5,29.5.65l22.1,10.22c4.39,2.03,9.68,3.08,15.08,3.69l-46.56-25.78c-7.8-4.32-16.9-9.98-18.26-18.91.27-2.76,7.06-1.12,7.9,1.12,2.1,5.63,6.51,3.76,10.4,4.97,27.48,8.53,52.54,23.17,75.84,39.75,1.03.74,2.33,5.14,1.12,5.5l-4.63,1.35-2.4,4.31c-1.57,2.82-9.18-6.39-15.42-5.64l-10.61,1.27,20.42,10.92c.96.51,2.37,2.23,3.06,2.98.86.94-1.31,5.94-2.57,5.33Z"/>
  <path class="cls-1" d="M275.54,93.18c1.04.37,2.98,3.08,3.59,3.96s-2.23,3.8-3.76,3.43c-15.78-3.82-35.75-12.38-52.08-19.32l-20.32-8.64c-3.74-1.59-6.92-5.41-3.92-9.84,6.81,2.18,13.69,4.93,20.18,7.8,18.79,8.31,36.5,15.56,56.31,22.6Z"/>
  <path class="cls-1" d="M221.05,200.33c7.96-8.17,17.74-13.78,27.4-20.31,3.7-2.5,6.78-5.3,11.79-5.93l-18.31,14.07-20.88,12.17Z"/>
</svg>