<?xml version="1.0" encoding="UTF-8"?>
<svg id="Calque_1" data-name="Calque 1" xmlns="http://www.w3.org/2000/svg" viewBox="0 0 292.36 297.72">
  <defs>
    <style>
      .cls-1 {
        fill: #fff;
      }
    </style>
  </defs>
  <path class="cls-1" d="M145.91,236.32c-.93,1.47-6.34-1.24-6.38-2.92-.23-8.52-.76-17.69-3.11-25.84-1.64-5.68,1.47-10.01,1.16-14.71l-2.14-32.35c-16.65-1.22-32.57,1.2-49.03,4.58-4.08.84-9,1.94-12.14-1.18.54-2.54,3.5-4.25,5.76-5.95,2.86-2.14-.53-7.85-3.33-10.26-.94-1.44,2.38-3.98,4.92-5.02l-4.52-1.5c-1.09-.36-1.87-3.89-.83-4.96,17.29-1.66,37.04-3.2,54.26-8.92-3.76-10.24-4.79-18.48-5.96-28.33l-2.74-23.2c-.19-1.6,2.87-5.22,4.36-5.71,1.7-.56,4.88,1.51,6.71,3.4l.73-9.27c1.63-.24,5.07.32,6.08,1.32s1.67,3.82,1.79,5.63l1.18,16.99,1.09,13.39c.32,3.88,1.07,7.32,2.55,10.85l-.62-12.21-.96-16.96c-.31-5.45.14-10.94.29-17.12.04-1.69,2.65-4.03,4.25-4.79,1.6-.75,6.22-.02,6.45,1.81l2.02,16.03,4.13,4.5c-.19,12.93.33,25.11,2.66,38.02l39.38-1.84c6-.28,19.16-5.14,21.96-2.12.69.75.49,3.65-.46,4.02l-4.03,1.57c1.22,1.6,2.71,4.18,3.09,6.26l1.38,7.57,4.81,2.62c1.18.64-1.75,4.26-3.14,4.68-25.04,7.5-33.22,4.23-56.85,7.65-3.08.45-4.82,5.15-5.4,7.62-.68,2.88,3.53,6.06,4.08,8.48,2.81,12.37,5.13,24.91,5.77,37.45.37,7.17-2.95.62,3.2,20.77-3.75,3.12-8.14.53-9.52-3.21l-3.82-10.31c-2.74,8.53,5.43,15.93-3.33,16.68-2.42.21-5.77.19-7.36-.56-2.65-1.25-4.76-13.35-6.03-7.38-1.8,8.49,1.56,8.55-2.35,14.75ZM138.37,139.95l.2,3.45c.03.47,1.98-.21,1.99-.68l.07-2.35c.01-.47-2.29-.9-2.27-.42ZM155.42,168.84c3.33,2.71,2.42-23.89-.5-18.44l.5,18.44ZM149.59,197.53c.44-2.8.43-5.25-.04-7.4-.44,2.8-.43,5.25.04,7.4ZM149.59,217.96c.53-3.23.52-6.04-.04-8.61-.53,3.23-.52,6.04.04,8.61Z"/>
  <path class="cls-1" d="M155.42,168.84l-.5-18.44c2.93-5.45,3.83,21.14.5,18.44Z"/>
  <path class="cls-1" d="M144.64,202.27c-.56-2.58-.56-5.39-.04-8.61.56,2.58.56,5.39.04,8.61Z"/>
  <path class="cls-1" d="M138.37,139.95c-.03-.47,2.28-.04,2.27.42l-.07,2.35c-.01.47-1.96,1.15-1.99.68l-.2-3.45Z"/>
  <path class="cls-1" d="M149.59,197.53c-.47-2.15-.48-4.6-.04-7.4.47,2.15.48,4.6.04,7.4Z"/>
</svg>